<svg xmlns="http://www.w3.org/2000/svg" xml:space="preserve" id="Layer_1" width="600" height="300" x="0" y="0" version="1.1" viewBox="0 0 600 300"><g id="Layer_x0020_1"><g id="_2283742353472"><g fill="#3C9"><path d="m254 196-1 29h-20l1-139c0-4 1-8 4-11s6-5 11-5h36c5 0 9 2 12 5s5 7 5 11v84c0 4-2 8-5 11s-7 4-12 4h-14l36 40h-28l-25-29zm28-31V90h-28v75h28zm35 60V70h20v155h-20zm89-122V89h-26v55h27v19h-27v43h26v-23h20v28c0 3-2 7-5 10-2 3-6 4-10 4h-36c-4 0-8-1-10-4-3-3-5-7-5-10V85c0-4 2-7 5-10 2-3 6-5 10-5h36c4 0 8 2 10 5 3 3 5 6 5 10v18h-20zm52 93v29h-21l1-139c0-4 2-8 4-11 3-3 7-5 11-5h37c4 0 8 2 11 5s5 7 5 11v84c0 4-2 8-5 11s-7 4-11 4h-15l36 40h-27l-26-29zm28-31V90h-28v75h28zM89 65h45v117l-45-35z"/><path d="M89 26h82v214l-20-14V46H89zM272 26h-81v214l20-14V46h62z"/></g><path fill="#9B9B9B" d="M268 274h5v-33h-5v13h-29v-13h-5v33h5v-15h29v15zm21 0h32v-4h-27v-11h23v-4h-23v-9h27v-5h-32v33zm81 0h6l-23-34-22 34h6l7-10h19l7 10zm-17-25 7 11h-13l6-11zm39-8h-5v33h32v-4h-27v-29zm45 5v28h5v-28h17v-5h-38v5h16zm67 28h5v-33h-5v13h-28v-13h-5v33h5v-15h28v15z"/></g></g></svg>